<svg width="22" height="22" viewBox="0 0 22 22" fill="none" xmlns="http://www.w3.org/2000/svg">
<path fill-rule="evenodd" clip-rule="evenodd" d="M18.7782 18.7782C20.8411 16.7153 22 13.9174 22 11C22 8.08262 20.8411 5.28473 18.7782 3.22183C16.7153 1.15893 13.9174 0 11 0C8.08262 0 5.28473 1.15893 3.22183 3.22183C1.15893 5.28473 0 8.08262 0 11C0 13.9174 1.15893 16.7153 3.22183 18.7782C5.28473 20.8411 8.08262 22 11 22C13.9174 22 16.7153 20.8411 18.7782 18.7782ZM15.9306 7.54096C15.8848 7.43471 15.8176 7.33819 15.733 7.25695C15.6486 7.1755 15.5483 7.11088 15.4379 7.06679C15.3274 7.0227 15.2091 7 15.0895 7C14.97 7 14.8516 7.0227 14.7412 7.06679C14.6308 7.11088 14.5305 7.1755 14.4461 7.25695L9.6365 11.8871L7.55345 9.88078C7.46895 9.79946 7.36863 9.73495 7.25822 9.69095C7.14782 9.64694 7.02949 9.62429 6.90999 9.62429C6.79049 9.62429 6.67215 9.64694 6.56175 9.69095C6.45135 9.73495 6.35103 9.79946 6.26653 9.88078C6.18203 9.96209 6.115 10.0586 6.06927 10.1649C6.02354 10.2711 6 10.385 6 10.5C6 10.615 6.02354 10.7289 6.06927 10.8351C6.115 10.9414 6.18203 11.0379 6.26653 11.1192L8.99305 13.7431C9.07747 13.8245 9.17776 13.8891 9.28818 13.9332C9.39859 13.9773 9.51696 14 9.6365 14C9.75605 14 9.87442 13.9773 9.98483 13.9332C10.0952 13.8891 10.1955 13.8245 10.28 13.7431L15.733 8.4954C15.8176 8.41415 15.8848 8.31764 15.9306 8.21138C15.9764 8.10513 16 7.99121 16 7.87617C16 7.76113 15.9764 7.64722 15.9306 7.54096Z" fill="#219436"/>
</svg>
