<svg width="29" height="20" viewBox="0 0 29 20" fill="none" xmlns="http://www.w3.org/2000/svg">
<path fill-rule="evenodd" clip-rule="evenodd" d="M28.9998 9.99998C28.9998 9.73476 28.8945 9.48041 28.7069 9.29288C28.5194 9.10534 28.2651 8.99998 27.9998 8.99998H4.41383L10.7078 2.70798C10.8008 2.61501 10.8746 2.50463 10.9249 2.38315C10.9752 2.26167 11.0011 2.13147 11.0011 1.99998C11.0011 1.86849 10.9752 1.73829 10.9249 1.61681C10.8746 1.49534 10.8008 1.38496 10.7078 1.29198C10.6149 1.19901 10.5045 1.12525 10.383 1.07493C10.2615 1.02462 10.1313 0.998718 9.99983 0.998718C9.86835 0.998718 9.73815 1.02462 9.61667 1.07493C9.49519 1.12525 9.38481 1.19901 9.29183 1.29198L1.29183 9.29198C1.19871 9.38487 1.12482 9.49522 1.07441 9.61671C1.024 9.7382 0.998047 9.86845 0.998047 9.99998C0.998047 10.1315 1.024 10.2618 1.07441 10.3832C1.12482 10.5047 1.19871 10.6151 1.29183 10.708L9.29183 18.708C9.38481 18.801 9.49519 18.8747 9.61667 18.925C9.73815 18.9753 9.86835 19.0012 9.99983 19.0012C10.1313 19.0012 10.2615 18.9753 10.383 18.925C10.5045 18.8747 10.6149 18.801 10.7078 18.708C10.8008 18.615 10.8746 18.5046 10.9249 18.3831C10.9752 18.2617 11.0011 18.1315 11.0011 18C11.0011 17.8685 10.9752 17.7383 10.9249 17.6168C10.8746 17.4953 10.8008 17.385 10.7078 17.292L4.41383 11H27.9998C28.2651 11 28.5194 10.8946 28.7069 10.7071C28.8945 10.5196 28.9998 10.2652 28.9998 9.99998Z" fill="#219436"/>
</svg>
