<svg width="39" height="36" viewBox="0 0 39 36" fill="none" xmlns="http://www.w3.org/2000/svg">
<g clip-path="url(#clip0)">
<path d="M17.6601 9.4683L11.6625 6.20883C11.3957 6.06391 11.0807 6.0699 10.8197 6.22508C10.5586 6.38023 10.4028 6.65417 10.4028 6.95786V14.5191C10.4028 14.825 10.568 15.109 10.834 15.2603L16.8317 18.6699C16.9639 18.7451 17.1085 18.7826 17.2531 18.7826C17.4005 18.7826 17.5478 18.7436 17.6818 18.6656C17.9471 18.5113 18.1055 18.2358 18.1055 17.9287V10.2174C18.1055 9.90468 17.9349 9.61765 17.6601 9.4683Z" fill="white"/>
<path d="M26.074 4.24204C26.0736 3.92278 25.8973 3.63322 25.6139 3.48632L19.0737 0.095667C18.8261 -0.0327684 18.5309 -0.0318143 18.2842 0.0980522L11.8403 3.48871C11.5597 3.63641 11.3852 3.9251 11.3848 4.24218C11.3844 4.5592 11.5582 4.84829 11.8384 4.99661L18.2824 8.40844C18.4072 8.47446 18.5442 8.50749 18.6812 8.50749C18.8166 8.50749 18.952 8.47527 19.0755 8.41079L25.6158 4.99904C25.8989 4.85137 26.0745 4.56129 26.074 4.24204Z" fill="white"/>
<path d="M26.7454 6.22508C26.4845 6.06989 26.1693 6.06376 25.9026 6.20878L19.9049 9.46829C19.6301 9.61764 19.4595 9.90464 19.4595 10.2173V17.9287C19.4595 18.2357 19.6179 18.5112 19.8832 18.6656C20.0172 18.7436 20.1645 18.7825 20.3119 18.7825C20.4565 18.7825 20.6012 18.745 20.7333 18.6699L26.7311 15.2602C26.997 15.109 27.1622 14.825 27.1622 14.5191V6.95785C27.1622 6.65416 27.0064 6.38023 26.7454 6.22508Z" fill="white"/>
</g>
<g clip-path="url(#clip1)">
<path d="M8.26898 26.6857L2.27141 23.4262C2.00463 23.2813 1.6896 23.2873 1.42855 23.4425C1.16749 23.5976 1.01172 23.8716 1.01172 24.1753V31.7365C1.01172 32.0424 1.17692 32.3264 1.44289 32.4777L7.44057 35.8873C7.57278 35.9625 7.71737 36 7.86199 36C8.00936 36 8.15669 35.961 8.29067 35.883C8.55601 35.7286 8.71443 35.4532 8.71443 35.1461V27.4348C8.71443 27.1221 8.54379 26.835 8.26898 26.6857Z" fill="white"/>
<path d="M16.6829 21.4594C16.6825 21.1402 16.5062 20.8506 16.2228 20.7037L9.6826 17.3131C9.43498 17.1846 9.13984 17.1856 8.89313 17.3154L2.44916 20.7061C2.16858 20.8538 1.99406 21.1425 1.99365 21.4596C1.99329 21.7766 2.16711 22.0657 2.44729 22.214L8.89129 25.6258C9.01606 25.6919 9.15305 25.7249 9.2901 25.7249C9.42548 25.7249 9.56088 25.6927 9.6844 25.6282L16.2247 22.2164C16.5078 22.0688 16.6834 21.7787 16.6829 21.4594Z" fill="white"/>
<path d="M17.3543 23.4425C17.0933 23.2873 16.7782 23.2812 16.5115 23.4262L10.5137 26.6857C10.239 26.835 10.0684 27.122 10.0684 27.4347V35.1461C10.0684 35.4531 10.2268 35.7286 10.4921 35.883C10.6261 35.9609 10.7734 35.9999 10.9208 35.9999C11.0654 35.9999 11.21 35.9624 11.3422 35.8873L17.3399 32.4776C17.6059 32.3264 17.7711 32.0424 17.7711 31.7365V24.1752C17.7711 23.8716 17.6153 23.5976 17.3543 23.4425Z" fill="white"/>
</g>
<g clip-path="url(#clip2)">
<path d="M27.5732 26.6857L21.5756 23.4262C21.3088 23.2813 20.9938 23.2873 20.7327 23.4425C20.4717 23.5976 20.3159 23.8716 20.3159 24.1753V31.7365C20.3159 32.0424 20.4811 32.3264 20.7471 32.4777L26.7448 35.8873C26.877 35.9625 27.0216 36 27.1662 36C27.3136 36 27.4609 35.961 27.5949 35.883C27.8602 35.7286 28.0186 35.4532 28.0186 35.1461V27.4348C28.0186 27.1221 27.848 26.835 27.5732 26.6857Z" fill="white"/>
<path d="M35.9871 21.4594C35.9867 21.1402 35.8104 20.8506 35.527 20.7037L28.9868 17.3131C28.7392 17.1846 28.444 17.1856 28.1973 17.3154L21.7534 20.7061C21.4728 20.8538 21.2983 21.1425 21.2979 21.4596C21.2975 21.7766 21.4713 22.0657 21.7515 22.214L28.1955 25.6258C28.3203 25.6919 28.4572 25.7249 28.5943 25.7249C28.7297 25.7249 28.8651 25.6927 28.9886 25.6282L35.5289 22.2164C35.812 22.0688 35.9876 21.7787 35.9871 21.4594Z" fill="white"/>
<path d="M36.6585 23.4425C36.3975 23.2873 36.0824 23.2812 35.8157 23.4262L29.8179 26.6857C29.5432 26.835 29.3726 27.122 29.3726 27.4347V35.1461C29.3726 35.4531 29.531 35.7286 29.7963 35.883C29.9303 35.9609 30.0776 35.9999 30.225 35.9999C30.3696 35.9999 30.5142 35.9624 30.6464 35.8873L36.6441 32.4776C36.9101 32.3264 37.0753 32.0424 37.0753 31.7365V24.1752C37.0753 23.8716 36.9195 23.5976 36.6585 23.4425Z" fill="white"/>
</g>
<defs>
<clipPath id="clip0">
<rect width="18.7826" height="18.7826" fill="white" transform="translate(9.39111)"/>
</clipPath>
<clipPath id="clip1">
<rect width="18.7826" height="18.7826" fill="white" transform="translate(0 17.2174)"/>
</clipPath>
<clipPath id="clip2">
<rect width="18.7826" height="18.7826" fill="white" transform="translate(19.3042 17.2174)"/>
</clipPath>
</defs>
</svg>
