<svg width="18" height="18" viewBox="0 0 18 18" fill="none" xmlns="http://www.w3.org/2000/svg">
<path d="M8.37474 11.8232C8.69684 12.1453 9.28421 12.1453 9.60632 11.8232L13.0168 8.41263C13.3579 8.07158 13.3579 7.52211 13.0168 7.18105C12.6758 6.84 12.1263 6.84 11.7853 7.18105L9 9.96632L6.21474 7.18105C6.04421 7.01053 5.81684 6.91579 5.58947 6.91579C5.36211 6.91579 5.13474 7.01053 4.96421 7.18105C4.62316 7.52211 4.62316 8.07158 4.96421 8.41263L8.37474 11.8232Z" fill="#219436"/>
<path d="M9 18C13.9642 18 18 13.9642 18 9C18 4.03579 13.9642 0 9 0C4.03579 0 0 4.03579 0 9C0 13.9642 4.03579 18 9 18ZM9 1.74316C12.9979 1.74316 16.2568 5.00211 16.2568 9C16.2568 12.9979 12.9979 16.2568 9 16.2568C5.00211 16.2568 1.74316 12.9979 1.74316 9C1.74316 5.00211 5.00211 1.74316 9 1.74316Z" fill="#219436"/>
</svg>
