<svg width="36" height="36" viewBox="0 0 36 36" fill="none" xmlns="http://www.w3.org/2000/svg">
<g clip-path="url(#clip0)">
<path d="M18 14.5287C21.3784 14.5287 24.1172 11.79 24.1172 8.41156C24.1172 5.03313 21.3784 2.29437 18 2.29437C14.6216 2.29437 11.8828 5.03313 11.8828 8.41156C11.8828 11.79 14.6216 14.5287 18 14.5287Z" fill="white"/>
<path d="M30.375 14.5287C32.5108 14.5287 34.2422 12.7973 34.2422 10.6615C34.2422 8.52571 32.5108 6.79431 30.375 6.79431C28.2392 6.79431 26.5078 8.52571 26.5078 10.6615C26.5078 12.7973 28.2392 14.5287 30.375 14.5287Z" fill="white"/>
<path d="M5.625 14.5287C7.76079 14.5287 9.49219 12.7973 9.49219 10.6615C9.49219 8.52571 7.76079 6.79431 5.625 6.79431C3.48921 6.79431 1.75781 8.52571 1.75781 10.6615C1.75781 12.7973 3.48921 14.5287 5.625 14.5287Z" fill="white"/>
<path d="M9.43523 18.0015C7.91297 16.7543 6.53435 16.9194 4.77422 16.9194C2.14172 16.9194 0 19.0484 0 21.6648V29.3436C0 30.4799 0.927422 31.4038 2.06789 31.4038C6.99159 31.4038 6.39844 31.4929 6.39844 31.1914C6.39844 25.7502 5.75395 21.7599 9.43523 18.0015Z" fill="white"/>
<path d="M19.6743 16.9474C16.6 16.691 13.9278 16.9504 11.6229 18.8529C7.76573 21.9424 8.50802 26.1023 8.50802 31.1913C8.50802 32.5377 9.60349 33.6537 10.9704 33.6537C25.8121 33.6537 26.4028 34.1324 27.2829 32.1834C27.5715 31.5243 27.4924 31.7338 27.4924 25.4285C27.4924 20.4204 23.156 16.9474 19.6743 16.9474Z" fill="white"/>
<path d="M31.226 16.9193C29.4562 16.9193 28.0852 16.7559 26.5649 18.0014C30.2187 21.7319 29.6017 25.45 29.6017 31.1913C29.6017 31.4947 29.1093 31.4037 33.8585 31.4037C35.0397 31.4037 36.0002 30.4467 36.0002 29.2704V21.6647C36.0002 19.0484 33.8585 16.9193 31.226 16.9193Z" fill="white"/>
</g>
<defs>
<clipPath id="clip0">
<rect width="36" height="36" fill="white"/>
</clipPath>
</defs>
</svg>
