<svg width="36" height="36" viewBox="0 0 36 36" fill="none" xmlns="http://www.w3.org/2000/svg">
<g clip-path="url(#clip0)">
<path d="M15.8487 18.1476L4.35338 11.9002C3.84205 11.6225 3.23824 11.634 2.73788 11.9314C2.23753 12.2288 1.93896 12.7538 1.93896 13.3359V27.8283C1.93896 28.4147 2.25561 28.959 2.76539 29.2488L14.2609 35.784C14.5143 35.9281 14.7915 36 15.0686 36C15.3511 36 15.6335 35.9252 15.8903 35.7758C16.3989 35.4799 16.7025 34.9519 16.7025 34.3634V19.5833C16.7025 18.984 16.3754 18.4338 15.8487 18.1476Z" fill="white"/>
<path d="M31.9752 8.13057C31.9745 7.51867 31.6364 6.96367 31.0932 6.68212L18.558 0.183361C18.0833 -0.0628067 17.5177 -0.060978 17.0448 0.187933L4.69385 6.68669C4.15608 6.96979 3.82158 7.5231 3.8208 8.13085C3.8201 8.73847 4.15327 9.29255 4.69027 9.57684L17.0413 16.1162C17.2804 16.2427 17.543 16.306 17.8057 16.306C18.0651 16.306 18.3247 16.2443 18.5614 16.1207L31.097 9.58148C31.6395 9.29846 31.9761 8.74248 31.9752 8.13057Z" fill="white"/>
<path d="M33.262 11.9314C32.7619 11.634 32.1578 11.6222 31.6467 11.9002L20.151 18.1476C19.6244 18.4338 19.2974 18.9839 19.2974 19.5832V34.3633C19.2974 34.9518 19.601 35.4798 20.1096 35.7757C20.3664 35.9251 20.6487 35.9998 20.9312 35.9998C21.2083 35.9998 21.4856 35.9279 21.7389 35.7839L33.2346 29.2487C33.7443 28.9589 34.0609 28.4146 34.0609 27.8282V13.3359C34.0609 12.7538 33.7623 12.2288 33.262 11.9314Z" fill="white"/>
</g>
<defs>
<clipPath id="clip0">
<rect width="36" height="36" fill="white"/>
</clipPath>
</defs>
</svg>
