<svg width="36" height="36" viewBox="0 0 36 36" fill="none" xmlns="http://www.w3.org/2000/svg">
<path d="M8.4375 1C8.71929 1 8.98954 1.11194 9.1888 1.3112C9.38806 1.51046 9.5 1.78071 9.5 2.0625V3.125H26.5V2.0625C26.5 1.78071 26.6119 1.51046 26.8112 1.3112C27.0105 1.11194 27.2807 1 27.5625 1C27.8443 1 28.1145 1.11194 28.3138 1.3112C28.5131 1.51046 28.625 1.78071 28.625 2.0625V3.125H30.75C31.8772 3.125 32.9582 3.57277 33.7552 4.3698C34.5522 5.16683 35 6.24783 35 7.375V30.75C35 31.8772 34.5522 32.9582 33.7552 33.7552C32.9582 34.5522 31.8772 35 30.75 35H5.25C4.12283 35 3.04183 34.5522 2.2448 33.7552C1.44777 32.9582 1 31.8772 1 30.75V7.375C1 6.24783 1.44777 5.16683 2.2448 4.3698C3.04183 3.57277 4.12283 3.125 5.25 3.125H7.375V2.0625C7.375 1.78071 7.48694 1.51046 7.6862 1.3112C7.88546 1.11194 8.15571 1 8.4375 1V1ZM29.5898 7.375H6.40812C5.77063 7.375 5.25 7.851 5.25 8.4375V10.5625C5.25 11.149 5.7685 11.625 6.40812 11.625H29.5919C30.2294 11.625 30.75 11.149 30.75 10.5625V8.4375C30.75 7.851 30.2315 7.375 29.5898 7.375ZM24.0648 19.8148C24.2643 19.6152 24.3763 19.3446 24.3763 19.0625C24.3763 18.7804 24.2643 18.5098 24.0648 18.3102C23.8652 18.1107 23.5946 17.9987 23.3125 17.9987C23.0304 17.9987 22.7598 18.1107 22.5602 18.3102L16.9375 23.9351L14.5023 21.4977C14.4035 21.399 14.2862 21.3206 14.1571 21.2671C14.028 21.2137 13.8897 21.1862 13.75 21.1862C13.6103 21.1862 13.472 21.2137 13.3429 21.2671C13.2138 21.3206 13.0965 21.399 12.9977 21.4977C12.899 21.5965 12.8206 21.7138 12.7671 21.8429C12.7137 21.972 12.6862 22.1103 12.6862 22.25C12.6862 22.3897 12.7137 22.528 12.7671 22.6571C12.8206 22.7862 12.899 22.9035 12.9977 23.0023L16.1852 26.1898C16.2839 26.2887 16.4012 26.3672 16.5303 26.4208C16.6594 26.4743 16.7977 26.5019 16.9375 26.5019C17.0773 26.5019 17.2156 26.4743 17.3447 26.4208C17.4738 26.3672 17.5911 26.2887 17.6898 26.1898L24.0648 19.8148Z" fill="white"/>
</svg>
