<svg width="18" height="18" viewBox="0 0 18 18" fill="none" xmlns="http://www.w3.org/2000/svg">
<path d="M8.37474 6.17684C8.69684 5.85474 9.28421 5.85474 9.60632 6.17684L13.0168 9.58737C13.3579 9.92842 13.3579 10.4779 13.0168 10.8189C12.6758 11.16 12.1263 11.16 11.7853 10.8189L9 8.03368L6.21474 10.8189C6.04421 10.9895 5.81684 11.0842 5.58947 11.0842C5.36211 11.0842 5.13474 10.9895 4.96421 10.8189C4.62316 10.4779 4.62316 9.92842 4.96421 9.58737L8.37474 6.17684Z" fill="#219436"/>
<path d="M9 0C13.9642 0 18 4.03579 18 9C18 13.9642 13.9642 18 9 18C4.03579 18 0 13.9642 0 9C0 4.03579 4.03579 0 9 0ZM9 16.2568C12.9979 16.2568 16.2568 12.9979 16.2568 9C16.2568 5.0021 12.9979 1.74316 9 1.74316C5.00211 1.74316 1.74316 5.0021 1.74316 9C1.74316 12.9979 5.00211 16.2568 9 16.2568Z" fill="#219436"/>
</svg>
