<svg width="36" height="36" viewBox="0 0 36 36" fill="none" xmlns="http://www.w3.org/2000/svg">
<path fill-rule="evenodd" clip-rule="evenodd" d="M10.5469 27C10.5469 26.2892 11.0542 25.5938 11.8125 25.5938H24.1875C25.8546 25.5938 25.8546 28.4062 24.1875 28.4062H11.8125C11.0542 28.4062 10.5469 27.7108 10.5469 27ZM10.5469 20.9531C10.5469 20.2462 11.2461 19.5469 11.9531 19.5469H24.0469C25.9379 19.5469 25.9025 22.5 23.9063 22.5H12.0937C11.2643 22.5 10.5469 21.8277 10.5469 20.9531ZM10.5469 15.0469C10.5469 13.0591 13.0229 13.5 14.9063 13.5C16.9431 13.5 16.8684 16.4532 15.0469 16.4532C13.2455 16.4532 10.5469 16.9071 10.5469 15.0469ZM2.95312 7.31249V28.4062C2.95312 30.6255 3.89462 32.5191 5.02514 33.6468C6.20523 34.8238 7.84955 36 10.125 36H25.875C29.6202 36 33.0469 32.4526 33.0469 28.6875V14.9063H24.8906C24.0028 14.9063 22.6543 14.4447 22.0302 14.1105C21.1467 13.6375 20.6067 13.082 19.9315 12.4123C18.7113 11.2021 18 9.26284 18 6.89062V0H10.125C6.37979 0 2.95312 3.54742 2.95312 7.31249Z" fill="white"/>
<path fill-rule="evenodd" clip-rule="evenodd" d="M32.0625 12.0937C31.8863 11.434 27.1864 7.00671 26.6133 6.43361C25.745 5.56536 21.5286 1.22909 20.9531 0.84375C20.9531 2.67185 20.9542 4.50004 20.9531 6.32814C20.9518 8.53734 21.1126 9.52261 22.2482 10.6581C23.2423 11.6523 24.4581 12.1051 26.4365 12.0947C28.311 12.0848 30.1878 12.0937 32.0625 12.0937Z" fill="white"/>
</svg>
