<svg width="36" height="36" viewBox="0 0 36 36" fill="none" xmlns="http://www.w3.org/2000/svg">
<path d="M22.5 4.5C15 4.5 10.8 8.36698 7.50002 10.5L10.5 13.5L0 18L10.5 22.5L7.49995 25.5C10.8 27.633 16.5 31.5 22.5 31.5C29.9559 31.5 36 25.4559 36 18C36 10.5441 29.9559 4.5 22.5 4.5ZM22.5 27C17.5295 27 13.5 22.9705 13.5 18C13.5 13.0295 17.5295 9 22.5 9C27.4705 9 31.5 13.0295 31.5 18C31.4942 22.9681 27.4681 26.9942 22.5 27Z" fill="white"/>
<path d="M22.0934 16.284L18.4739 15.084L17.5244 17.934L22.0244 19.4339C22.5635 19.6107 23.1562 19.4705 23.5589 19.0709L28.0589 14.5709L25.9394 12.4394L22.0934 16.284Z" fill="white"/>
<path d="M5.99998 7.50002H0V10.5H5.99998V7.50002Z" fill="white"/>
<path d="M5.99998 25.5H0V28.5H5.99998V25.5Z" fill="white"/>
<path d="M12 1.49998H6V4.5H12V1.49998Z" fill="white"/>
<path d="M12 31.5H6V34.5H12V31.5Z" fill="white"/>
</svg>
