<svg width="36" height="36" viewBox="0 0 36 36" fill="none" xmlns="http://www.w3.org/2000/svg">
<g clip-path="url(#clip0)">
<path d="M17.7432 17.3413C20.1256 17.3413 22.1885 16.4868 23.8741 14.801C25.5597 13.1154 26.4141 11.053 26.4141 8.67038C26.4141 6.28855 25.5597 4.22587 23.8738 2.53975C22.188 0.854458 20.1253 0 17.7432 0C15.3605 0 13.2981 0.854458 11.6126 2.54003C9.927 4.2256 9.07227 6.28827 9.07227 8.67038C9.07227 11.053 9.927 13.1157 11.6128 14.8013C13.2987 16.4866 15.3614 17.3413 17.7432 17.3413Z" fill="white"/>
<path d="M32.9152 27.6821C32.8666 26.9807 32.7683 26.2155 32.6235 25.4074C32.4774 24.5934 32.2893 23.8238 32.064 23.1204C31.8314 22.3934 31.515 21.6754 31.1239 20.9874C30.7179 20.2733 30.2411 19.6514 29.7061 19.1398C29.1466 18.6045 28.4616 18.1741 27.6695 17.8601C26.8802 17.5479 26.0054 17.3896 25.0696 17.3896C24.7021 17.3896 24.3467 17.5404 23.6603 17.9873C23.2379 18.2628 22.7438 18.5814 22.1923 18.9338C21.7207 19.2342 21.0819 19.5158 20.2928 19.7707C19.5229 20.0198 18.7412 20.1461 17.9697 20.1461C17.1982 20.1461 16.4168 20.0198 15.6461 19.7707C14.8579 19.516 14.219 19.2345 13.748 18.934C13.2017 18.585 12.7073 18.2664 12.2786 17.987C11.593 17.5402 11.2373 17.3894 10.8698 17.3894C9.93381 17.3894 9.0593 17.5479 8.27021 17.8604C7.47865 18.1738 6.79338 18.6042 6.23336 19.14C5.6986 19.652 5.22152 20.2735 4.81612 20.9874C4.42529 21.6754 4.10888 22.3931 3.87597 23.1206C3.65103 23.824 3.46289 24.5934 3.31677 25.4074C3.17203 26.2144 3.0737 26.9799 3.02509 27.683C2.97729 28.3718 2.95312 29.0867 2.95312 29.8088C2.95312 31.688 3.5505 33.2093 4.72851 34.3313C5.89196 35.4385 7.43141 36.0001 9.30347 36.0001H26.6376C28.5097 36.0001 30.0486 35.4387 31.2123 34.3313C32.3906 33.2102 32.988 31.6886 32.988 29.8085C32.9877 29.0832 32.9633 28.3677 32.9152 27.6821Z" fill="white"/>
</g>
<defs>
<clipPath id="clip0">
<rect width="35.9999" height="36" fill="white"/>
</clipPath>
</defs>
</svg>
