<svg width="36" height="36" viewBox="0 0 36 36" fill="none" xmlns="http://www.w3.org/2000/svg">
<g clip-path="url(#clip0)">
<path d="M5.22535 24.1412C4.70046 23.2533 3.76643 22.76 2.80811 22.76C2.3204 22.76 1.82649 22.8877 1.37666 23.1561C0.043119 23.9518 -0.395879 25.6831 0.396162 27.023C0.921044 27.9109 1.85508 28.4042 2.81339 28.4042C3.30111 28.4042 3.79501 28.2765 4.24478 28.0081C5.57839 27.2124 6.01732 25.4811 5.22535 24.1412Z" fill="white"/>
<path d="M14.0798 30.0042C14.4463 29.5464 14.8982 29.1453 15.4299 28.828C15.8792 28.5598 16.3653 28.3648 16.8695 28.2472V22.1263C16.4099 22.02 15.9651 21.8505 15.5508 21.6209C14.772 21.1894 14.1188 20.5564 13.6617 19.7905C13.0099 18.6983 12.7973 17.4294 13.0533 16.1927L6.8815 13.3979C6.49277 13.9311 5.99358 14.3962 5.39309 14.7545C4.93713 15.0266 4.44336 15.2232 3.93115 15.3403V20.6465C4.39922 20.7535 4.85202 20.9267 5.27314 21.1623C6.0492 21.5963 6.69967 22.2322 7.15415 23.0011C7.8558 24.1881 8.01546 25.5496 7.7086 26.7948L14.0798 30.0042Z" fill="white"/>
<path d="M35.6033 23.0184C35.0784 22.1305 34.1444 21.6373 33.186 21.6373C32.6983 21.6373 32.2044 21.7649 31.7546 22.0333C30.421 22.8291 29.9821 24.5604 30.7741 25.9002C31.299 26.7881 32.233 27.2814 33.1913 27.2814C33.679 27.2814 34.1729 27.1537 34.6227 26.8854C35.9563 26.0896 36.3953 24.3583 35.6033 23.0184Z" fill="white"/>
<path d="M30.6069 20.1094C31.0629 19.8373 31.5566 19.6407 32.0688 19.5236V14.2574C31.6008 14.1505 31.148 13.9773 30.7268 13.7417C30.2763 13.4897 29.8685 13.1692 29.5164 12.7946L22.9364 16.0331C23.1261 16.8197 23.1232 17.6454 22.9177 18.4518C22.584 19.7617 21.7582 20.8626 20.5925 21.5516C20.1303 21.8249 19.6293 22.0212 19.1099 22.1366V28.2375C19.5859 28.3439 20.0463 28.5188 20.4741 28.7581C20.9311 29.0138 21.3441 29.3398 21.6997 29.7214L28.3573 25.925C27.7021 23.7511 28.5761 21.3212 30.6069 20.1094Z" fill="white"/>
<path d="M20.4265 31.737C19.9016 30.849 18.9675 30.3558 18.0092 30.3558C17.5215 30.3558 17.0276 30.4835 16.5778 30.7518C15.2443 31.5476 14.8053 33.2789 15.5973 34.6187C16.1222 35.5067 17.0563 36 18.0146 36C18.5023 36 18.9962 35.8723 19.446 35.6039C20.7795 34.8082 21.2185 33.0769 20.4265 31.737Z" fill="white"/>
<path d="M33.1862 6.49979C32.6985 6.49979 32.2046 6.62749 31.7548 6.89584C30.7085 7.52019 30.2133 8.72026 30.4307 9.85548C30.5292 9.83119 30.5279 9.91286 30.4774 10.0563C30.5426 10.2987 30.6404 10.5364 30.7743 10.7628C31.2991 11.6507 32.2332 12.144 33.1915 12.144C33.6792 12.144 34.1731 12.0163 34.6229 11.748C35.9564 10.9522 36.3954 9.22092 35.6034 7.88105C35.0786 6.99306 34.1446 6.49979 33.1862 6.49979Z" fill="white"/>
<path d="M18.0089 14.3997C17.5188 14.3997 17.0225 14.5268 16.5707 14.7939C15.2308 15.586 14.7898 17.3091 15.5855 18.6425C16.1129 19.5263 17.0513 20.0173 18.0142 20.0173C18.5043 20.0173 19.0006 19.8902 19.4525 19.623C20.7923 18.831 21.2334 17.108 20.4376 15.7744C19.9102 14.8906 18.9718 14.3997 18.0089 14.3997Z" fill="white"/>
<path d="M15.5968 4.26298C16.1217 5.15097 17.0558 5.64425 18.0141 5.64425C18.5018 5.64425 18.9957 5.51655 19.4455 5.24819C20.779 4.45242 21.218 2.72114 20.426 1.38127C19.9011 0.493274 18.9671 0 18.0087 0C17.521 0 17.0271 0.127701 16.5773 0.396055C15.2438 1.19183 14.8048 2.92311 15.5968 4.26298Z" fill="white"/>
<path d="M4.24479 12.8307C5.57832 12.0349 6.01732 10.3036 5.22528 8.96376C4.7004 8.07584 3.76637 7.58257 2.80805 7.58257C2.32033 7.58257 1.82643 7.71027 1.37659 7.97862C0.0431217 8.77439 -0.395876 10.5057 0.396164 11.8456C0.921047 12.7335 1.85508 13.2267 2.8134 13.2267C3.30111 13.2268 3.79502 13.0991 4.24479 12.8307Z" fill="white"/>
<path d="M13.9645 5.84805L7.63721 8.92187C7.88008 9.71743 7.91767 10.5473 7.76829 11.3402L13.9794 14.1529C14.3696 13.6407 14.8589 13.2032 15.4307 12.8653C16.212 12.4034 17.1035 12.1594 18.009 12.1594C18.8689 12.1594 19.7208 12.3795 20.4725 12.7961C21.037 13.1088 21.535 13.5278 21.9407 14.0262L28.3794 10.8573C28.1223 10.047 28.0792 9.19917 28.2311 8.38988L22.0392 5.87184C21.6568 6.38131 21.1726 6.8265 20.5936 7.17201C19.8124 7.63818 18.9204 7.88457 18.0141 7.88457C17.1533 7.88457 16.301 7.66233 15.5492 7.24184C14.9285 6.89471 14.3885 6.41819 13.9645 5.84805Z" fill="white"/>
</g>
<defs>
<clipPath id="clip0">
<rect width="36" height="36" fill="white"/>
</clipPath>
</defs>
</svg>
