<svg width="36" height="36" viewBox="0 0 36 36" fill="none" xmlns="http://www.w3.org/2000/svg">
<g clip-path="url(#clip0)">
<path d="M35.2 8.90448C35.2 8.86642 35.2 8.86642 35.2 8.82837C35.1619 8.75226 35.1619 8.67616 35.1239 8.60005V8.562C35.0858 8.48589 35.0097 8.40978 34.9717 8.37173L34.9336 8.33368C34.8955 8.29562 34.8194 8.25757 34.7814 8.21952L34.7433 8.18146H34.7053L34.6672 8.14341L18.4946 0.11416C18.1901 -0.0380533 17.8096 -0.0380533 17.4671 0.11416L12.0255 2.81595L28.2743 11.1496L28.3123 11.1877C28.3504 11.1877 28.3504 11.2257 28.3884 11.2257C28.4265 11.2638 28.4265 11.3018 28.4645 11.3399C28.4645 11.3779 28.4645 11.3779 28.4645 11.416V11.4541V20.2824C28.4645 20.4346 28.3884 20.5488 28.2743 20.6249L25.0017 22.3373C24.8114 22.4515 24.5831 22.3754 24.4689 22.1851C24.4309 22.147 24.4309 22.0709 24.4309 21.9948V13.3567L7.99185 4.87083L7.9538 4.83277L1.37057 8.10536L1.33252 8.14341H1.29447L1.25641 8.18146C1.21836 8.21952 1.14225 8.25757 1.1042 8.29562L1.06615 8.33368C0.990039 8.40978 0.951985 8.48589 0.875879 8.562V8.60005C0.837825 8.67616 0.799772 8.75226 0.799772 8.82837C0.799772 8.86642 0.799772 8.86642 0.799772 8.90448C0.799772 8.98058 0.761719 9.01864 0.761719 9.09474V9.1328V26.8656C0.761719 27.2842 0.990039 27.7028 1.40863 27.8931L17.4291 35.8843C17.6574 35.9984 17.9238 36.0365 18.1901 35.9604L18.2662 35.9223C18.3424 35.9223 18.3804 35.8843 18.4565 35.8462L34.5911 27.855C34.9717 27.6648 35.238 27.2842 35.238 26.8276V9.1328V9.09474C35.2 9.01864 35.2 8.98058 35.2 8.90448Z" fill="white"/>
</g>
<defs>
<clipPath id="clip0">
<rect width="36" height="36" fill="white"/>
</clipPath>
</defs>
</svg>
