<svg width="20" height="20" viewBox="0 0 20 20" fill="none" xmlns="http://www.w3.org/2000/svg">
<path d="M0 2.5C0 1.83696 0.263392 1.20107 0.732233 0.732233C1.20107 0.263392 1.83696 0 2.5 0L12.5 0C13.163 0 13.7989 0.263392 14.2678 0.732233C14.7366 1.20107 15 1.83696 15 2.5V5H17.5C18.163 5 18.7989 5.26339 19.2678 5.73223C19.7366 6.20107 20 6.83696 20 7.5V17.5C20 18.163 19.7366 18.7989 19.2678 19.2678C18.7989 19.7366 18.163 20 17.5 20H7.5C6.83696 20 6.20107 19.7366 5.73223 19.2678C5.26339 18.7989 5 18.163 5 17.5V15H2.5C1.83696 15 1.20107 14.7366 0.732233 14.2678C0.263392 13.7989 0 13.163 0 12.5V2.5ZM6.25 15V17.5C6.25 17.8315 6.3817 18.1495 6.61612 18.3839C6.85054 18.6183 7.16848 18.75 7.5 18.75H17.5C17.8315 18.75 18.1495 18.6183 18.3839 18.3839C18.6183 18.1495 18.75 17.8315 18.75 17.5V7.5C18.75 7.16848 18.6183 6.85054 18.3839 6.61612C18.1495 6.3817 17.8315 6.25 17.5 6.25H15V12.5C15 13.163 14.7366 13.7989 14.2678 14.2678C13.7989 14.7366 13.163 15 12.5 15H6.25Z" fill="#8D9C92"/>
</svg>
