<svg width="247" height="54" viewBox="0 0 247 54" fill="none" xmlns="http://www.w3.org/2000/svg">
<path d="M85.968 23.032H77.584L76.24 27H70.512L78.64 4.536H84.976L93.104 27H87.312L85.968 23.032ZM84.56 18.808L81.776 10.584L79.024 18.808H84.56ZM107.034 27L102.362 18.52H101.05V27H95.5778V4.536H104.762C106.532 4.536 108.036 4.84533 109.274 5.464C110.532 6.08267 111.471 6.936 112.09 8.024C112.708 9.09067 113.018 10.2853 113.018 11.608C113.018 13.1013 112.591 14.4347 111.738 15.608C110.906 16.7813 109.668 17.6133 108.026 18.104L113.21 27H107.034ZM101.05 14.648H104.442C105.444 14.648 106.191 14.4027 106.682 13.912C107.194 13.4213 107.45 12.728 107.45 11.832C107.45 10.9787 107.194 10.3067 106.682 9.816C106.191 9.32533 105.444 9.08 104.442 9.08H101.05V14.648ZM130.437 23.032H122.053L120.709 27H114.981L123.109 4.536H129.445L137.573 27H131.781L130.437 23.032ZM129.029 18.808L126.245 10.584L123.493 18.808H129.029ZM147.791 27.224C146.297 27.224 144.953 26.968 143.759 26.456C142.564 25.9227 141.625 25.176 140.943 24.216C140.26 23.256 139.919 22.136 139.919 20.856H143.823C143.908 21.816 144.281 22.6053 144.943 23.224C145.625 23.8427 146.575 24.152 147.791 24.152C149.049 24.152 150.031 23.8533 150.735 23.256C151.439 22.6373 151.791 21.848 151.791 20.888C151.791 20.1413 151.567 19.5333 151.119 19.064C150.692 18.5947 150.148 18.232 149.487 17.976C148.847 17.72 147.951 17.4427 146.799 17.144C145.348 16.76 144.164 16.376 143.247 15.992C142.351 15.5867 141.583 14.968 140.943 14.136C140.303 13.304 139.983 12.1947 139.983 10.808C139.983 9.528 140.303 8.408 140.943 7.448C141.583 6.488 142.479 5.752 143.631 5.24C144.783 4.728 146.116 4.472 147.631 4.472C149.785 4.472 151.545 5.016 152.911 6.104C154.297 7.17067 155.065 8.64267 155.215 10.52H151.183C151.119 9.70933 150.735 9.016 150.031 8.44C149.327 7.864 148.399 7.576 147.247 7.576C146.201 7.576 145.348 7.84267 144.687 8.376C144.025 8.90933 143.695 9.67733 143.695 10.68C143.695 11.3627 143.897 11.928 144.303 12.376C144.729 12.8027 145.263 13.144 145.903 13.4C146.543 13.656 147.417 13.9333 148.527 14.232C149.999 14.6373 151.193 15.0427 152.111 15.448C153.049 15.8533 153.839 16.4827 154.479 17.336C155.14 18.168 155.471 19.288 155.471 20.696C155.471 21.8267 155.161 22.8933 154.543 23.896C153.945 24.8987 153.06 25.7093 151.887 26.328C150.735 26.9253 149.369 27.224 147.791 27.224ZM158.559 18.168C158.559 16.3547 158.922 14.7653 159.647 13.4C160.394 12.0133 161.418 10.9467 162.719 10.2C164.02 9.45333 165.514 9.08 167.199 9.08C169.332 9.08 171.092 9.592 172.479 10.616C173.887 11.6187 174.836 13.0587 175.327 14.936H171.391C171.071 14.0613 170.559 13.3787 169.855 12.888C169.151 12.3973 168.266 12.152 167.199 12.152C165.706 12.152 164.511 12.6853 163.615 13.752C162.74 14.7973 162.303 16.2693 162.303 18.168C162.303 20.0667 162.74 21.5493 163.615 22.616C164.511 23.6827 165.706 24.216 167.199 24.216C169.311 24.216 170.708 23.288 171.391 21.432H175.327C174.815 23.224 173.855 24.6533 172.447 25.72C171.039 26.7653 169.29 27.288 167.199 27.288C165.514 27.288 164.02 26.9147 162.719 26.168C161.418 25.4 160.394 24.3333 159.647 22.968C158.922 21.5813 158.559 19.9813 158.559 18.168ZM177.747 18.104C177.747 16.3333 178.109 14.7653 178.835 13.4C179.581 12.0347 180.584 10.9787 181.843 10.232C183.123 9.464 184.531 9.08 186.067 9.08C187.453 9.08 188.659 9.35733 189.683 9.912C190.728 10.4453 191.56 11.1173 192.179 11.928V9.368H195.859V27H192.179V24.376C191.56 25.208 190.717 25.9013 189.651 26.456C188.584 27.0107 187.368 27.288 186.003 27.288C184.488 27.288 183.101 26.904 181.843 26.136C180.584 25.3467 179.581 24.2587 178.835 22.872C178.109 21.464 177.747 19.8747 177.747 18.104ZM192.179 18.168C192.179 16.952 191.923 15.896 191.411 15C190.92 14.104 190.269 13.4213 189.459 12.952C188.648 12.4827 187.773 12.248 186.835 12.248C185.896 12.248 185.021 12.4827 184.211 12.952C183.4 13.4 182.739 14.072 182.227 14.968C181.736 15.8427 181.491 16.888 181.491 18.104C181.491 19.32 181.736 20.3867 182.227 21.304C182.739 22.2213 183.4 22.9253 184.211 23.416C185.043 23.8853 185.917 24.12 186.835 24.12C187.773 24.12 188.648 23.8853 189.459 23.416C190.269 22.9467 190.92 22.264 191.411 21.368C191.923 20.4507 192.179 19.384 192.179 18.168ZM209.546 9.08C210.933 9.08 212.17 9.368 213.258 9.944C214.367 10.52 215.231 11.3733 215.85 12.504C216.469 13.6347 216.778 15 216.778 16.6V27H213.162V17.144C213.162 15.5653 212.767 14.36 211.978 13.528C211.189 12.6747 210.111 12.248 208.746 12.248C207.381 12.248 206.293 12.6747 205.482 13.528C204.693 14.36 204.298 15.5653 204.298 17.144V27H200.65V9.368H204.298V11.384C204.895 10.6587 205.653 10.0933 206.57 9.688C207.509 9.28267 208.501 9.08 209.546 9.08Z" fill="#3F4942"/>
<path d="M78.75 50H77.476L72.352 42.23V50H71.078V40.228H72.352L77.476 47.984V40.228H78.75V50ZM87.7258 42.328V50H86.4518V48.866C86.2091 49.258 85.8684 49.566 85.4298 49.79C85.0004 50.0047 84.5244 50.112 84.0018 50.112C83.4044 50.112 82.8678 49.9907 82.3918 49.748C81.9158 49.496 81.5378 49.1227 81.2578 48.628C80.9871 48.1333 80.8518 47.5313 80.8518 46.822V42.328H82.1118V46.654C82.1118 47.41 82.3031 47.9933 82.6858 48.404C83.0684 48.8053 83.5911 49.006 84.2538 49.006C84.9351 49.006 85.4718 48.796 85.8638 48.376C86.2558 47.956 86.4518 47.3447 86.4518 46.542V42.328H87.7258ZM89.4008 46.15C89.4008 45.3567 89.5595 44.666 89.8768 44.078C90.1942 43.4807 90.6328 43.0187 91.1928 42.692C91.7622 42.3653 92.4108 42.202 93.1388 42.202C94.0815 42.202 94.8562 42.4307 95.4628 42.888C96.0788 43.3453 96.4848 43.98 96.6808 44.792H95.3088C95.1782 44.3253 94.9215 43.9567 94.5388 43.686C94.1655 43.4153 93.6988 43.28 93.1388 43.28C92.4108 43.28 91.8228 43.532 91.3748 44.036C90.9268 44.5307 90.7028 45.2353 90.7028 46.15C90.7028 47.074 90.9268 47.788 91.3748 48.292C91.8228 48.796 92.4108 49.048 93.1388 49.048C93.6988 49.048 94.1655 48.9173 94.5388 48.656C94.9122 48.3947 95.1688 48.0213 95.3088 47.536H96.6808C96.4755 48.32 96.0648 48.95 95.4488 49.426C94.8328 49.8927 94.0628 50.126 93.1388 50.126C92.4108 50.126 91.7622 49.9627 91.1928 49.636C90.6328 49.3093 90.1942 48.8473 89.8768 48.25C89.5595 47.6527 89.4008 46.9527 89.4008 46.15ZM102.189 42.188C102.767 42.188 103.29 42.314 103.757 42.566C104.223 42.8087 104.587 43.1773 104.849 43.672C105.119 44.1667 105.255 44.7687 105.255 45.478V50H103.995V45.66C103.995 44.8947 103.803 44.3113 103.421 43.91C103.038 43.4993 102.515 43.294 101.853 43.294C101.181 43.294 100.644 43.504 100.243 43.924C99.8507 44.344 99.6547 44.9553 99.6547 45.758V50H98.3807V39.64H99.6547V43.42C99.9067 43.028 100.252 42.7247 100.691 42.51C101.139 42.2953 101.638 42.188 102.189 42.188ZM106.86 46.136C106.86 45.352 107.018 44.666 107.336 44.078C107.653 43.4807 108.087 43.0187 108.638 42.692C109.198 42.3653 109.818 42.202 110.5 42.202C111.172 42.202 111.755 42.3467 112.25 42.636C112.744 42.9253 113.113 43.2893 113.356 43.728V42.328H114.644V50H113.356V48.572C113.104 49.02 112.726 49.3933 112.222 49.692C111.727 49.9813 111.148 50.126 110.486 50.126C109.804 50.126 109.188 49.958 108.638 49.622C108.087 49.286 107.653 48.8147 107.336 48.208C107.018 47.6013 106.86 46.9107 106.86 46.136ZM113.356 46.15C113.356 45.5713 113.239 45.0673 113.006 44.638C112.772 44.2087 112.455 43.882 112.054 43.658C111.662 43.4247 111.228 43.308 110.752 43.308C110.276 43.308 109.842 43.42 109.45 43.644C109.058 43.868 108.745 44.1947 108.512 44.624C108.278 45.0533 108.162 45.5573 108.162 46.136C108.162 46.724 108.278 47.2373 108.512 47.676C108.745 48.1053 109.058 48.4367 109.45 48.67C109.842 48.894 110.276 49.006 110.752 49.006C111.228 49.006 111.662 48.894 112.054 48.67C112.455 48.4367 112.772 48.1053 113.006 47.676C113.239 47.2373 113.356 46.7287 113.356 46.15ZM117.455 41.082C117.212 41.082 117.007 40.998 116.839 40.83C116.671 40.662 116.587 40.4567 116.587 40.214C116.587 39.9713 116.671 39.766 116.839 39.598C117.007 39.43 117.212 39.346 117.455 39.346C117.688 39.346 117.884 39.43 118.043 39.598C118.211 39.766 118.295 39.9713 118.295 40.214C118.295 40.4567 118.211 40.662 118.043 40.83C117.884 40.998 117.688 41.082 117.455 41.082ZM118.071 42.328V50H116.797V42.328H118.071ZM123.98 42.188C124.913 42.188 125.669 42.4727 126.248 43.042C126.827 43.602 127.116 44.414 127.116 45.478V50H125.856V45.66C125.856 44.8947 125.665 44.3113 125.282 43.91C124.899 43.4993 124.377 43.294 123.714 43.294C123.042 43.294 122.505 43.504 122.104 43.924C121.712 44.344 121.516 44.9553 121.516 45.758V50H120.242V42.328H121.516V43.42C121.768 43.028 122.109 42.7247 122.538 42.51C122.977 42.2953 123.457 42.188 123.98 42.188ZM140.602 50H139.328L134.204 42.23V50H132.93V40.228H134.204L139.328 47.984V40.228H140.602V50ZM149.773 45.87C149.773 46.1127 149.759 46.3693 149.731 46.64H143.599C143.646 47.396 143.903 47.9887 144.369 48.418C144.845 48.838 145.419 49.048 146.091 49.048C146.642 49.048 147.099 48.922 147.463 48.67C147.837 48.4087 148.098 48.0633 148.247 47.634H149.619C149.414 48.3713 149.003 48.9733 148.387 49.44C147.771 49.8973 147.006 50.126 146.091 50.126C145.363 50.126 144.71 49.9627 144.131 49.636C143.562 49.3093 143.114 48.8473 142.787 48.25C142.461 47.6433 142.297 46.9433 142.297 46.15C142.297 45.3567 142.456 44.6613 142.773 44.064C143.091 43.4667 143.534 43.0093 144.103 42.692C144.682 42.3653 145.345 42.202 146.091 42.202C146.819 42.202 147.463 42.3607 148.023 42.678C148.583 42.9953 149.013 43.434 149.311 43.994C149.619 44.5447 149.773 45.17 149.773 45.87ZM148.457 45.604C148.457 45.1187 148.35 44.7033 148.135 44.358C147.921 44.0033 147.627 43.7373 147.253 43.56C146.889 43.3733 146.483 43.28 146.035 43.28C145.391 43.28 144.841 43.4853 144.383 43.896C143.935 44.3067 143.679 44.876 143.613 45.604H148.457ZM153.009 43.378V47.9C153.009 48.2733 153.088 48.5393 153.247 48.698C153.406 48.8473 153.681 48.922 154.073 48.922H155.011V50H153.863C153.154 50 152.622 49.8367 152.267 49.51C151.912 49.1833 151.735 48.6467 151.735 47.9V43.378H150.741V42.328H151.735V40.396H153.009V42.328H155.011V43.378H153.009ZM166.775 42.328L164.381 50H163.065L161.217 43.91L159.369 50H158.053L155.645 42.328H156.947L158.711 48.768L160.615 42.328H161.917L163.779 48.782L165.515 42.328H166.775ZM171.385 50.126C170.666 50.126 170.013 49.9627 169.425 49.636C168.846 49.3093 168.389 48.8473 168.053 48.25C167.726 47.6433 167.563 46.9433 167.563 46.15C167.563 45.366 167.731 44.6753 168.067 44.078C168.412 43.4713 168.879 43.0093 169.467 42.692C170.055 42.3653 170.713 42.202 171.441 42.202C172.169 42.202 172.827 42.3653 173.415 42.692C174.003 43.0093 174.465 43.4667 174.801 44.064C175.146 44.6613 175.319 45.3567 175.319 46.15C175.319 46.9433 175.142 47.6433 174.787 48.25C174.442 48.8473 173.97 49.3093 173.373 49.636C172.776 49.9627 172.113 50.126 171.385 50.126ZM171.385 49.006C171.842 49.006 172.272 48.8987 172.673 48.684C173.074 48.4693 173.396 48.1473 173.639 47.718C173.891 47.2887 174.017 46.766 174.017 46.15C174.017 45.534 173.896 45.0113 173.653 44.582C173.41 44.1527 173.093 43.8353 172.701 43.63C172.309 43.4153 171.884 43.308 171.427 43.308C170.96 43.308 170.531 43.4153 170.139 43.63C169.756 43.8353 169.448 44.1527 169.215 44.582C168.982 45.0113 168.865 45.534 168.865 46.15C168.865 46.7753 168.977 47.3027 169.201 47.732C169.434 48.1613 169.742 48.4833 170.125 48.698C170.508 48.9033 170.928 49.006 171.385 49.006ZM178.268 43.574C178.492 43.1353 178.809 42.7947 179.22 42.552C179.64 42.3093 180.149 42.188 180.746 42.188V43.504H180.41C178.982 43.504 178.268 44.2787 178.268 45.828V50H176.994V42.328H178.268V43.574ZM186.501 50L183.491 46.612V50H182.217V39.64H183.491V45.73L186.445 42.328H188.223L184.611 46.15L188.237 50H186.501ZM194.428 41.278V44.54H197.984V45.59H194.428V48.95H198.404V50H193.154V40.228H198.404V41.278H194.428ZM204.336 50L202.516 47.144L200.766 50H199.436L201.914 46.192L199.436 42.328H200.878L202.698 45.17L204.434 42.328H205.764L203.3 46.122L205.778 50H204.336ZM208.305 43.742C208.557 43.3033 208.93 42.9393 209.425 42.65C209.929 42.3513 210.512 42.202 211.175 42.202C211.856 42.202 212.472 42.3653 213.023 42.692C213.583 43.0187 214.022 43.4807 214.339 44.078C214.656 44.666 214.815 45.352 214.815 46.136C214.815 46.9107 214.656 47.6013 214.339 48.208C214.022 48.8147 213.583 49.286 213.023 49.622C212.472 49.958 211.856 50.126 211.175 50.126C210.522 50.126 209.943 49.9813 209.439 49.692C208.944 49.3933 208.566 49.0247 208.305 48.586V53.64H207.031V42.328H208.305V43.742ZM213.513 46.136C213.513 45.5573 213.396 45.0533 213.163 44.624C212.93 44.1947 212.612 43.868 212.211 43.644C211.819 43.42 211.385 43.308 210.909 43.308C210.442 43.308 210.008 43.4247 209.607 43.658C209.215 43.882 208.898 44.2133 208.655 44.652C208.422 45.0813 208.305 45.5807 208.305 46.15C208.305 46.7287 208.422 47.2373 208.655 47.676C208.898 48.1053 209.215 48.4367 209.607 48.67C210.008 48.894 210.442 49.006 210.909 49.006C211.385 49.006 211.819 48.894 212.211 48.67C212.612 48.4367 212.93 48.1053 213.163 47.676C213.396 47.2373 213.513 46.724 213.513 46.136ZM217.766 39.64V50H216.492V39.64H217.766ZM223.283 50.126C222.565 50.126 221.911 49.9627 221.323 49.636C220.745 49.3093 220.287 48.8473 219.951 48.25C219.625 47.6433 219.461 46.9433 219.461 46.15C219.461 45.366 219.629 44.6753 219.965 44.078C220.311 43.4713 220.777 43.0093 221.365 42.692C221.953 42.3653 222.611 42.202 223.339 42.202C224.067 42.202 224.725 42.3653 225.313 42.692C225.901 43.0093 226.363 43.4667 226.699 44.064C227.045 44.6613 227.217 45.3567 227.217 46.15C227.217 46.9433 227.04 47.6433 226.685 48.25C226.34 48.8473 225.869 49.3093 225.271 49.636C224.674 49.9627 224.011 50.126 223.283 50.126ZM223.283 49.006C223.741 49.006 224.17 48.8987 224.571 48.684C224.973 48.4693 225.295 48.1473 225.537 47.718C225.789 47.2887 225.915 46.766 225.915 46.15C225.915 45.534 225.794 45.0113 225.551 44.582C225.309 44.1527 224.991 43.8353 224.599 43.63C224.207 43.4153 223.783 43.308 223.325 43.308C222.859 43.308 222.429 43.4153 222.037 43.63C221.655 43.8353 221.347 44.1527 221.113 44.582C220.88 45.0113 220.763 45.534 220.763 46.15C220.763 46.7753 220.875 47.3027 221.099 47.732C221.333 48.1613 221.641 48.4833 222.023 48.698C222.406 48.9033 222.826 49.006 223.283 49.006ZM230.166 43.574C230.39 43.1353 230.708 42.7947 231.118 42.552C231.538 42.3093 232.047 42.188 232.644 42.188V43.504H232.308C230.88 43.504 230.166 44.2787 230.166 45.828V50H228.892V42.328H230.166V43.574ZM241.115 45.87C241.115 46.1127 241.101 46.3693 241.073 46.64H234.941C234.988 47.396 235.244 47.9887 235.711 48.418C236.187 48.838 236.761 49.048 237.433 49.048C237.984 49.048 238.441 48.922 238.805 48.67C239.178 48.4087 239.44 48.0633 239.589 47.634H240.961C240.756 48.3713 240.345 48.9733 239.729 49.44C239.113 49.8973 238.348 50.126 237.433 50.126C236.705 50.126 236.052 49.9627 235.473 49.636C234.904 49.3093 234.456 48.8473 234.129 48.25C233.802 47.6433 233.639 46.9433 233.639 46.15C233.639 45.3567 233.798 44.6613 234.115 44.064C234.432 43.4667 234.876 43.0093 235.445 42.692C236.024 42.3653 236.686 42.202 237.433 42.202C238.161 42.202 238.805 42.3607 239.365 42.678C239.925 42.9953 240.354 43.434 240.653 43.994C240.961 44.5447 241.115 45.17 241.115 45.87ZM239.799 45.604C239.799 45.1187 239.692 44.7033 239.477 44.358C239.262 44.0033 238.968 43.7373 238.595 43.56C238.231 43.3733 237.825 43.28 237.377 43.28C236.733 43.28 236.182 43.4853 235.725 43.896C235.277 44.3067 235.02 44.876 234.955 45.604H239.799ZM244.071 43.574C244.295 43.1353 244.612 42.7947 245.023 42.552C245.443 42.3093 245.951 42.188 246.549 42.188V43.504H246.213C244.785 43.504 244.071 44.2787 244.071 45.828V50H242.797V42.328H244.071V43.574Z" fill="#8D9C92"/>
<path d="M26.594 45.7391C21.4819 45.7391 16.6747 43.7473 13.0583 40.131C9.44196 36.515 7.45166 31.7089 7.45166 26.5957C7.45166 16.0394 16.0389 7.45212 26.594 7.45212C37.15 7.45212 45.7372 16.0394 45.7372 26.5957C45.7372 37.1505 37.15 45.7391 26.594 45.7391Z" fill="#219436"/>
<path d="M50.9744 17.7302C49.751 17.7302 48.7581 16.7395 48.7581 15.5139V6.6488C48.7581 5.42545 47.763 4.43255 46.5418 4.43255H37.6767C36.4533 4.43255 35.4604 3.44186 35.4604 2.21625C35.4604 0.990641 36.4533 0 37.6767 0H46.5418C50.2077 0 53.1906 2.98298 53.1906 6.6488V15.5139C53.1906 16.7395 52.1977 17.7302 50.9744 17.7302Z" fill="#3F4942"/>
<path d="M46.5418 53.1906H37.6767C36.4533 53.1906 35.4604 52.1999 35.4604 50.9743C35.4604 49.7487 36.4533 48.758 37.6767 48.758H46.5418C47.763 48.758 48.7581 47.7652 48.7581 46.5417V37.6766C48.7581 36.4511 49.751 35.4604 50.9744 35.4604C52.1977 35.4604 53.1906 36.4511 53.1906 37.6766V46.5417C53.1906 50.2076 50.2077 53.1906 46.5418 53.1906Z" fill="#3F4942"/>
<path d="M15.514 53.1906H6.64886C2.98303 53.1906 0 50.2076 0 46.5417V37.6766C0 36.4511 0.992924 35.4604 2.2163 35.4604C3.43968 35.4604 4.43255 36.4511 4.43255 37.6766V46.5417C4.43255 47.7652 5.42768 48.758 6.64886 48.758H15.514C16.7373 48.758 17.7302 49.7487 17.7302 50.9743C17.7302 52.1999 16.7373 53.1906 15.514 53.1906Z" fill="#3F4942"/>
<path d="M2.2163 17.7302C0.992924 17.7302 0 16.7395 0 15.5139V6.6488C0 2.98298 2.98303 0 6.64886 0H15.514C16.7373 0 17.7302 0.990641 17.7302 2.21625C17.7302 3.44186 16.7373 4.43255 15.514 4.43255H6.64886C5.42768 4.43255 4.43255 5.42545 4.43255 6.6488V15.5139C4.43255 16.7395 3.43968 17.7302 2.2163 17.7302Z" fill="#3F4942"/>
<path fill-rule="evenodd" clip-rule="evenodd" d="M16.5519 33.2654C16.3753 32.5751 23.891 15.0648 26.9992 15.2836C31.0737 15.5705 36.5075 32.9925 35.9059 33.6606C35.1241 34.529 26.4056 29.659 26.4056 28.0843C26.4056 27.3442 31.2133 28.0989 31.2004 27.1492C31.2004 24.9771 28.6602 21.2602 27.2318 21.3205C25.9065 21.3205 26.3781 32.2418 24.7424 33.1256C23.3249 33.8916 16.7285 33.9558 16.5519 33.2654Z" fill="white"/>
</svg>
